# xmcd
#
# Track frame offsets:
# 150
# 32976
# 57729
# 83475
# 116061
# 132208
# 172233
# 181327
# 205468
#
# Disc length: 3058 seconds
#
#
# Revision: 0
# Processed by: cddbd v1.5PL3 Copyright (c) Steve Scherf et al.
# Submitted via: FreeRIP 2.11 
#
DISCID=850bf009
DTITLE=Cantaloop - Live
DYEAR=2002
DGENRE=Funk
TTITLE0=Losing My Mind
TTITLE1=Real Thing
TTITLE2=Sensatize
TTITLE3=Wierd Science
TTITLE4=Honey I Funk't the Kids
TTITLE5=Fatman
TTITLE6=Intro Propa
TTITLE7=Propa
TTITLE8=Push
EXTD=
EXTT0=
EXTT1=
EXTT2=
EXTT3=
EXTT4=
EXTT5=
EXTT6=
EXTT7=
EXTT8=
PLAYORDER=
